<svg width="28" height="29" viewBox="0 0 28 29" fill="none" xmlns="http://www.w3.org/2000/svg">
<path d="M26.6875 6.62489V11.8749C26.6875 12.223 26.5492 12.5568 26.3031 12.803C26.057 13.0491 25.7231 13.1874 25.375 13.1874H20.125C19.7769 13.1874 19.4431 13.0491 19.1969 12.803C18.9508 12.5568 18.8125 12.223 18.8125 11.8749C18.8125 11.5268 18.9508 11.193 19.1969 10.9468C19.4431 10.7007 19.7769 10.5624 20.125 10.5624H21.9953L19.9172 8.66145C19.903 8.64833 19.8888 8.6352 19.8757 8.62098C18.9121 7.658 17.7266 6.94659 16.4235 6.54936C15.1204 6.15212 13.7397 6.08123 12.4028 6.34292C11.0659 6.60462 9.81378 7.19087 8.75665 8.05011C7.69952 8.90935 6.86977 10.0152 6.3404 11.2704C5.81103 12.5257 5.59827 13.8918 5.72084 15.2485C5.84341 16.6053 6.29755 17.9111 7.04331 19.0511C7.78907 20.1912 8.80358 21.1304 9.99758 21.7863C11.1916 22.4422 12.5285 22.7945 13.8907 22.8124H14C16.1218 22.8175 18.1642 22.006 19.7039 20.5461C19.957 20.307 20.2948 20.1781 20.6429 20.188C20.9909 20.1978 21.3209 20.3455 21.56 20.5986C21.7992 20.8517 21.928 21.1895 21.9182 21.5376C21.9083 21.8856 21.7606 22.2156 21.5075 22.4547C19.4807 24.3758 16.7926 25.4438 14 25.4374H13.8502C12.0598 25.4122 10.3029 24.9477 8.73393 24.0849C7.16493 23.2221 5.83176 21.9872 4.85148 20.4888C3.87121 18.9904 3.2738 17.2742 3.11173 15.491C2.94966 13.7077 3.22788 11.912 3.92195 10.2614C4.61603 8.61075 5.70473 7.15579 7.09247 6.02424C8.48021 4.89269 10.1245 4.11915 11.8811 3.77155C13.6376 3.42395 15.4526 3.51291 17.1667 4.03063C18.8808 4.54835 20.4416 5.47899 21.7121 6.74083L24.0625 8.89114V6.62489C24.0625 6.27679 24.2008 5.94295 24.4469 5.69681C24.6931 5.45067 25.0269 5.31239 25.375 5.31239C25.7231 5.31239 26.057 5.45067 26.3031 5.69681C26.5492 5.94295 26.6875 6.27679 26.6875 6.62489Z" fill="white"/>
</svg>
