<svg width="12" height="21" viewBox="0 0 12 21" fill="none" xmlns="http://www.w3.org/2000/svg">
<path d="M10.6598 10.9945L2.44943 19.7445C2.21807 19.991 1.90428 20.1296 1.57708 20.1296C1.24988 20.1296 0.936088 19.991 0.704725 19.7445C0.473362 19.4979 0.343384 19.1635 0.343384 18.8148C0.343384 18.4661 0.473362 18.1317 0.704725 17.8851L8.04379 10.0659L0.706778 2.24446C0.592219 2.12238 0.501345 1.97744 0.439346 1.81792C0.377347 1.6584 0.345436 1.48744 0.345436 1.31478C0.345436 1.14212 0.377347 0.971149 0.439346 0.811633C0.501345 0.652117 0.592219 0.507178 0.706778 0.385089C0.821337 0.263001 0.957339 0.166155 1.10702 0.100082C1.2567 0.0340079 1.41712 -1.28641e-09 1.57913 0C1.74114 1.28641e-09 1.90157 0.0340078 2.05125 0.100082C2.20093 0.166155 2.33693 0.263001 2.45149 0.385089L10.6619 9.13509C10.7766 9.25717 10.8675 9.40217 10.9295 9.56179C10.9915 9.7214 11.0233 9.89249 11.0231 10.0652C11.0229 10.238 10.9907 10.409 10.9284 10.5684C10.866 10.7279 10.7748 10.8727 10.6598 10.9945Z" fill="#363636"/>
</svg>
