<svg width="22" height="22" viewBox="0 0 22 22" fill="none" xmlns="http://www.w3.org/2000/svg">
<path d="M21.1272 18.6863C21.409 18.9681 21.5673 19.3503 21.5673 19.7488C21.5673 20.1473 21.409 20.5295 21.1272 20.8113C20.8454 21.0931 20.4632 21.2514 20.0647 21.2514C19.6662 21.2514 19.284 21.0931 19.0022 20.8113L11.0659 12.8725L3.12719 20.8088C2.8454 21.0906 2.4632 21.2489 2.06469 21.2489C1.66618 21.2489 1.28398 21.0906 1.00219 20.8088C0.720398 20.527 0.562088 20.1448 0.562088 19.7463C0.562088 19.3478 0.720398 18.9656 1.00219 18.6838L8.94094 10.7475L1.00469 2.80878C0.722897 2.52699 0.564588 2.1448 0.564588 1.74628C0.564588 1.34777 0.722897 0.965576 1.00469 0.683784C1.28648 0.401991 1.66867 0.243681 2.06719 0.243681C2.4657 0.243681 2.8479 0.401991 3.12969 0.683784L11.0659 8.62253L19.0047 0.682533C19.2865 0.400741 19.6687 0.242432 20.0672 0.242432C20.4657 0.242432 20.8479 0.400741 21.1297 0.682533C21.4115 0.964326 21.5698 1.34652 21.5698 1.74503C21.5698 2.14355 21.4115 2.52574 21.1297 2.80753L13.1909 10.7475L21.1272 18.6863Z" fill="#363636"/>
</svg>
